<mxfile host="app.diagrams.net" modified="2024-05-28T04:37:59.297Z" agent="Mozilla/5.0 (Windows NT 10.0; Win64; x64) AppleWebKit/537.36 (KHTML, like Gecko) Chrome/125.0.0.0 Safari/537.36" etag="FYwFy9Q0Xj4r_cLDNCmM" version="24.4.9" type="github" pages="2">
  <diagram id="C5RBs43oDa-KdzZeNtuy" name="Page-1">
    <mxGraphModel dx="2862" dy="1292" grid="1" gridSize="10" guides="1" tooltips="1" connect="1" arrows="1" fold="1" page="1" pageScale="1" pageWidth="827" pageHeight="1169" math="0" shadow="0">
      <root>
        <mxCell id="WIyWlLk6GJQsqaUBKTNV-0" />
        <mxCell id="WIyWlLk6GJQsqaUBKTNV-1" parent="WIyWlLk6GJQsqaUBKTNV-0" />
        <mxCell id="KGcUv-pFr_gMB9oFCGtX-23" value="&lt;p style=&quot;margin:0px;margin-top:4px;text-align:center;&quot;&gt;&lt;b&gt;Class&lt;/b&gt;&lt;/p&gt;&lt;hr size=&quot;1&quot; style=&quot;border-style:solid;&quot;/&gt;&lt;p style=&quot;margin:0px;margin-left:4px;&quot;&gt;+ field: Type&lt;/p&gt;&lt;hr size=&quot;1&quot; style=&quot;border-style:solid;&quot;/&gt;&lt;p style=&quot;margin:0px;margin-left:4px;&quot;&gt;+ method(): Type&lt;/p&gt;" style="verticalAlign=top;align=left;overflow=fill;html=1;whiteSpace=wrap;" parent="WIyWlLk6GJQsqaUBKTNV-1" vertex="1">
          <mxGeometry x="30" y="240" width="180" height="180" as="geometry" />
        </mxCell>
        <mxCell id="KGcUv-pFr_gMB9oFCGtX-24" value="" style="shape=providedRequiredInterface;html=1;verticalLabelPosition=bottom;sketch=0;" parent="WIyWlLk6GJQsqaUBKTNV-1" vertex="1">
          <mxGeometry x="30" y="160" width="40" height="40" as="geometry" />
        </mxCell>
        <mxCell id="KGcUv-pFr_gMB9oFCGtX-25" value="Main Camera" style="shape=providedRequiredInterface;html=1;verticalLabelPosition=bottom;sketch=0;verticalAlign=top;" parent="WIyWlLk6GJQsqaUBKTNV-1" vertex="1">
          <mxGeometry x="30" y="80" width="40" height="40" as="geometry" />
        </mxCell>
        <mxCell id="KGcUv-pFr_gMB9oFCGtX-26" value="&lt;p style=&quot;margin:0px;margin-top:4px;text-align:center;&quot;&gt;&lt;b&gt;Class&lt;/b&gt;&lt;/p&gt;&lt;hr size=&quot;1&quot; style=&quot;border-style:solid;&quot;&gt;&lt;p style=&quot;margin:0px;margin-left:4px;&quot;&gt;+&amp;nbsp;&lt;/p&gt;&lt;hr size=&quot;1&quot; style=&quot;border-style:solid;&quot;&gt;&lt;p style=&quot;margin:0px;margin-left:4px;&quot;&gt;-&amp;nbsp;&lt;/p&gt;" style="verticalAlign=top;align=left;overflow=fill;html=1;whiteSpace=wrap;" parent="WIyWlLk6GJQsqaUBKTNV-1" vertex="1">
          <mxGeometry x="130" y="240" width="180" height="180" as="geometry" />
        </mxCell>
        <mxCell id="KGcUv-pFr_gMB9oFCGtX-27" value="&lt;p style=&quot;margin:0px;margin-top:4px;text-align:center;&quot;&gt;&lt;b&gt;Class&lt;/b&gt;&lt;/p&gt;&lt;hr size=&quot;1&quot; style=&quot;border-style:solid;&quot;&gt;&lt;p style=&quot;margin:0px;margin-left:4px;&quot;&gt;+&amp;nbsp;&lt;/p&gt;&lt;hr size=&quot;1&quot; style=&quot;border-style:solid;&quot;&gt;&lt;p style=&quot;margin:0px;margin-left:4px;&quot;&gt;-&amp;nbsp;&lt;/p&gt;" style="verticalAlign=top;align=left;overflow=fill;html=1;whiteSpace=wrap;collapsible=1;" parent="WIyWlLk6GJQsqaUBKTNV-1" vertex="1">
          <mxGeometry x="230" y="240" width="180" height="180" as="geometry">
            <mxRectangle x="720" y="360" width="70" height="90" as="alternateBounds" />
          </mxGeometry>
        </mxCell>
        <mxCell id="KGcUv-pFr_gMB9oFCGtX-28" value="" style="ellipse;html=1;shape=endState;align=left;verticalAlign=top;fontFamily=Helvetica;fontSize=12;strokeColor=default;fillColor=none;" parent="WIyWlLk6GJQsqaUBKTNV-1" vertex="1">
          <mxGeometry x="105" y="80" width="45" height="45" as="geometry" />
        </mxCell>
        <mxCell id="KGcUv-pFr_gMB9oFCGtX-29" value="" style="ellipse;whiteSpace=wrap;html=1;aspect=fixed;strokeColor=default;align=left;verticalAlign=top;fontFamily=Helvetica;fontSize=12;fontColor=default;fillColor=default;" parent="WIyWlLk6GJQsqaUBKTNV-1" vertex="1">
          <mxGeometry x="190" y="80" width="40" height="40" as="geometry" />
        </mxCell>
        <mxCell id="KGcUv-pFr_gMB9oFCGtX-30" value="Main Camera" style="ellipse;strokeColor=default;align=center;verticalAlign=bottom;fontFamily=Helvetica;fontSize=12;fontColor=default;fillColor=none;html=1;labelBorderColor=none;labelBackgroundColor=none;noLabel=0;collapsible=0;backgroundOutline=0;movableLabel=1;aspect=fixed;enumerate=0;" parent="WIyWlLk6GJQsqaUBKTNV-1" vertex="1">
          <mxGeometry x="270" y="80" width="40" height="40" as="geometry">
            <mxPoint y="20" as="offset" />
          </mxGeometry>
        </mxCell>
        <mxCell id="KGcUv-pFr_gMB9oFCGtX-31" value="Main Camera" style="ellipse;strokeColor=default;align=center;verticalAlign=bottom;fontFamily=Helvetica;fontSize=12;fontColor=default;fillColor=none;html=1;labelBorderColor=none;labelBackgroundColor=none;noLabel=0;collapsible=0;backgroundOutline=0;movableLabel=1;aspect=fixed;enumerate=0;" parent="WIyWlLk6GJQsqaUBKTNV-1" vertex="1">
          <mxGeometry x="350" y="80" width="28" height="28" as="geometry">
            <mxPoint y="20" as="offset" />
          </mxGeometry>
        </mxCell>
        <mxCell id="KGcUv-pFr_gMB9oFCGtX-32" value="Classname" style="swimlane;fontStyle=1;align=center;verticalAlign=top;childLayout=stackLayout;horizontal=1;startSize=26;horizontalStack=0;resizeParent=1;resizeParentMax=0;resizeLast=0;collapsible=1;marginBottom=0;whiteSpace=wrap;html=1;autosize=1;" parent="WIyWlLk6GJQsqaUBKTNV-1" vertex="1">
          <mxGeometry x="446" y="310" width="160" height="86" as="geometry">
            <mxRectangle x="456" y="270" width="100" height="30" as="alternateBounds" />
          </mxGeometry>
        </mxCell>
        <mxCell id="KGcUv-pFr_gMB9oFCGtX-33" value="+ field: type" style="text;strokeColor=none;fillColor=none;align=left;verticalAlign=top;spacingLeft=4;spacingRight=4;overflow=hidden;rotatable=0;points=[[0,0.5],[1,0.5]];portConstraint=eastwest;whiteSpace=wrap;html=1;autosize=1;" parent="KGcUv-pFr_gMB9oFCGtX-32" vertex="1">
          <mxGeometry y="26" width="160" height="26" as="geometry" />
        </mxCell>
        <mxCell id="KGcUv-pFr_gMB9oFCGtX-34" value="" style="line;strokeWidth=1;fillColor=none;align=left;verticalAlign=middle;spacingTop=-1;spacingLeft=3;spacingRight=3;rotatable=0;labelPosition=right;points=[];portConstraint=eastwest;strokeColor=inherit;" parent="KGcUv-pFr_gMB9oFCGtX-32" vertex="1">
          <mxGeometry y="52" width="160" height="8" as="geometry" />
        </mxCell>
        <mxCell id="KGcUv-pFr_gMB9oFCGtX-35" value="+ method(type): type" style="text;strokeColor=none;fillColor=none;align=left;verticalAlign=top;spacingLeft=4;spacingRight=4;overflow=hidden;rotatable=0;points=[[0,0.5],[1,0.5]];portConstraint=eastwest;whiteSpace=wrap;html=1;autosize=1;" parent="KGcUv-pFr_gMB9oFCGtX-32" vertex="1">
          <mxGeometry y="60" width="160" height="26" as="geometry" />
        </mxCell>
        <mxCell id="KGcUv-pFr_gMB9oFCGtX-36" value="Classname" style="swimlane;fontStyle=1;align=center;verticalAlign=top;childLayout=stackLayout;horizontal=1;startSize=26;horizontalStack=0;resizeParent=1;resizeParentMax=0;resizeLast=0;collapsible=1;marginBottom=0;whiteSpace=wrap;html=1;autosize=1;" parent="WIyWlLk6GJQsqaUBKTNV-1" vertex="1">
          <mxGeometry x="637" y="310" width="160" height="94" as="geometry">
            <mxRectangle x="456" y="270" width="100" height="30" as="alternateBounds" />
          </mxGeometry>
        </mxCell>
        <mxCell id="KGcUv-pFr_gMB9oFCGtX-37" value="+&amp;nbsp;" style="text;strokeColor=none;fillColor=none;align=left;verticalAlign=top;spacingLeft=4;spacingRight=4;overflow=hidden;rotatable=0;points=[[0,0.5],[1,0.5]];portConstraint=eastwest;whiteSpace=wrap;html=1;autosize=1;" parent="KGcUv-pFr_gMB9oFCGtX-36" vertex="1">
          <mxGeometry y="26" width="160" height="30" as="geometry" />
        </mxCell>
        <mxCell id="KGcUv-pFr_gMB9oFCGtX-38" value="" style="line;strokeWidth=1;fillColor=none;align=left;verticalAlign=middle;spacingTop=-1;spacingLeft=3;spacingRight=3;rotatable=0;labelPosition=right;points=[];portConstraint=eastwest;strokeColor=inherit;" parent="KGcUv-pFr_gMB9oFCGtX-36" vertex="1">
          <mxGeometry y="56" width="160" height="8" as="geometry" />
        </mxCell>
        <mxCell id="KGcUv-pFr_gMB9oFCGtX-39" value="-&amp;nbsp;" style="text;strokeColor=none;fillColor=none;align=left;verticalAlign=top;spacingLeft=4;spacingRight=4;overflow=hidden;rotatable=0;points=[[0,0.5],[1,0.5]];portConstraint=eastwest;whiteSpace=wrap;html=1;autosize=1;" parent="KGcUv-pFr_gMB9oFCGtX-36" vertex="1">
          <mxGeometry y="64" width="160" height="30" as="geometry" />
        </mxCell>
        <mxCell id="KGcUv-pFr_gMB9oFCGtX-40" style="edgeStyle=elbowEdgeStyle;rounded=0;orthogonalLoop=1;jettySize=auto;elbow=vertical;html=1;strokeColor=default;align=center;verticalAlign=middle;fontFamily=Helvetica;fontSize=12;fontColor=default;labelBackgroundColor=default;startSize=8;endArrow=classic;endSize=8;dashed=1;" parent="WIyWlLk6GJQsqaUBKTNV-1" edge="1">
          <mxGeometry relative="1" as="geometry">
            <mxPoint x="582" y="79.99999999999977" as="sourcePoint" />
            <mxPoint x="582" y="182" as="targetPoint" />
          </mxGeometry>
        </mxCell>
        <mxCell id="KGcUv-pFr_gMB9oFCGtX-41" value="Uses" style="endArrow=open;endSize=12;dashed=1;html=1;rounded=0;strokeColor=default;align=center;verticalAlign=middle;fontFamily=Helvetica;fontSize=12;fontColor=default;labelBackgroundColor=default;edgeStyle=elbowEdgeStyle;elbow=horizontal;" parent="WIyWlLk6GJQsqaUBKTNV-1" edge="1">
          <mxGeometry width="160" relative="1" as="geometry">
            <mxPoint x="460.35368421052624" y="182" as="sourcePoint" />
            <mxPoint x="460.35368421052624" y="79.99999999999977" as="targetPoint" />
          </mxGeometry>
        </mxCell>
        <mxCell id="KGcUv-pFr_gMB9oFCGtX-42" value="Used by" style="endArrow=open;endSize=12;dashed=1;html=1;rounded=0;strokeColor=default;align=center;verticalAlign=middle;fontFamily=Helvetica;fontSize=12;fontColor=default;labelBackgroundColor=default;edgeStyle=elbowEdgeStyle;elbow=horizontal;" parent="WIyWlLk6GJQsqaUBKTNV-1" edge="1">
          <mxGeometry width="160" relative="1" as="geometry">
            <mxPoint x="520" y="80" as="sourcePoint" />
            <mxPoint x="520" y="182" as="targetPoint" />
          </mxGeometry>
        </mxCell>
        <mxCell id="KGcUv-pFr_gMB9oFCGtX-43" value="Relation" style="endArrow=open;html=1;endSize=12;startArrow=diamondThin;startSize=14;startFill=0;edgeStyle=orthogonalEdgeStyle;rounded=0;strokeColor=default;align=center;verticalAlign=middle;fontFamily=Helvetica;fontSize=12;fontColor=default;labelBackgroundColor=default;elbow=vertical;" parent="WIyWlLk6GJQsqaUBKTNV-1" edge="1">
          <mxGeometry relative="1" as="geometry">
            <mxPoint x="610" y="120" as="sourcePoint" />
            <mxPoint x="770" y="120" as="targetPoint" />
          </mxGeometry>
        </mxCell>
        <mxCell id="KGcUv-pFr_gMB9oFCGtX-44" value="0..n" style="edgeLabel;resizable=0;html=1;align=left;verticalAlign=top;fontFamily=Helvetica;fontSize=12;fontColor=default;labelBackgroundColor=default;" parent="KGcUv-pFr_gMB9oFCGtX-43" connectable="0" vertex="1">
          <mxGeometry x="-1" relative="1" as="geometry" />
        </mxCell>
        <mxCell id="KGcUv-pFr_gMB9oFCGtX-45" value="1" style="edgeLabel;resizable=0;html=1;align=right;verticalAlign=top;fontFamily=Helvetica;fontSize=12;fontColor=default;labelBackgroundColor=default;" parent="KGcUv-pFr_gMB9oFCGtX-43" connectable="0" vertex="1">
          <mxGeometry x="1" relative="1" as="geometry" />
        </mxCell>
        <mxCell id="KGcUv-pFr_gMB9oFCGtX-87" style="edgeStyle=elbowEdgeStyle;rounded=0;orthogonalLoop=1;jettySize=auto;html=1;fontSize=12;startSize=8;endSize=8;elbow=vertical;" parent="WIyWlLk6GJQsqaUBKTNV-1" source="KGcUv-pFr_gMB9oFCGtX-46" target="KGcUv-pFr_gMB9oFCGtX-71" edge="1">
          <mxGeometry relative="1" as="geometry" />
        </mxCell>
        <mxCell id="KGcUv-pFr_gMB9oFCGtX-46" value="Rank" style="swimlane;fontStyle=1;align=center;verticalAlign=top;childLayout=stackLayout;horizontal=1;startSize=38;horizontalStack=0;resizeParent=1;resizeParentMax=0;resizeLast=0;collapsible=1;marginBottom=0;whiteSpace=wrap;html=1;autosize=1;" parent="WIyWlLk6GJQsqaUBKTNV-1" vertex="1" collapsed="1">
          <mxGeometry x="-720" y="523" width="100" height="30" as="geometry">
            <mxRectangle x="-500" y="600" width="160" height="106" as="alternateBounds" />
          </mxGeometry>
        </mxCell>
        <mxCell id="KGcUv-pFr_gMB9oFCGtX-47" value="+&amp;nbsp;" style="text;strokeColor=none;fillColor=none;align=left;verticalAlign=top;spacingLeft=4;spacingRight=4;overflow=hidden;rotatable=0;points=[[0,0.5],[1,0.5]];portConstraint=eastwest;whiteSpace=wrap;html=1;autosize=1;" parent="KGcUv-pFr_gMB9oFCGtX-46" vertex="1">
          <mxGeometry y="38" width="160" height="30" as="geometry" />
        </mxCell>
        <mxCell id="KGcUv-pFr_gMB9oFCGtX-48" value="" style="line;strokeWidth=1;fillColor=none;align=left;verticalAlign=middle;spacingTop=-1;spacingLeft=3;spacingRight=3;rotatable=0;labelPosition=right;points=[];portConstraint=eastwest;strokeColor=inherit;" parent="KGcUv-pFr_gMB9oFCGtX-46" vertex="1">
          <mxGeometry y="68" width="160" height="8" as="geometry" />
        </mxCell>
        <mxCell id="KGcUv-pFr_gMB9oFCGtX-49" value="-&amp;nbsp;" style="text;strokeColor=none;fillColor=none;align=left;verticalAlign=top;spacingLeft=4;spacingRight=4;overflow=hidden;rotatable=0;points=[[0,0.5],[1,0.5]];portConstraint=eastwest;whiteSpace=wrap;html=1;autosize=1;" parent="KGcUv-pFr_gMB9oFCGtX-46" vertex="1">
          <mxGeometry y="76" width="160" height="30" as="geometry" />
        </mxCell>
        <mxCell id="KGcUv-pFr_gMB9oFCGtX-88" style="edgeStyle=elbowEdgeStyle;rounded=0;orthogonalLoop=1;jettySize=auto;elbow=vertical;html=1;strokeColor=default;align=center;verticalAlign=middle;fontFamily=Helvetica;fontSize=12;fontColor=default;labelBackgroundColor=default;startSize=8;endArrow=classic;endSize=8;" parent="WIyWlLk6GJQsqaUBKTNV-1" source="KGcUv-pFr_gMB9oFCGtX-54" target="KGcUv-pFr_gMB9oFCGtX-71" edge="1">
          <mxGeometry relative="1" as="geometry" />
        </mxCell>
        <mxCell id="KGcUv-pFr_gMB9oFCGtX-54" value="Suit" style="swimlane;fontStyle=1;align=center;verticalAlign=top;childLayout=stackLayout;horizontal=1;startSize=38;horizontalStack=0;resizeParent=1;resizeParentMax=0;resizeLast=0;collapsible=1;marginBottom=0;whiteSpace=wrap;html=1;autosize=1;" parent="WIyWlLk6GJQsqaUBKTNV-1" vertex="1" collapsed="1">
          <mxGeometry x="-560" y="523" width="100" height="30" as="geometry">
            <mxRectangle x="-280" y="568" width="160" height="106" as="alternateBounds" />
          </mxGeometry>
        </mxCell>
        <mxCell id="KGcUv-pFr_gMB9oFCGtX-55" value="+&amp;nbsp;" style="text;strokeColor=none;fillColor=none;align=left;verticalAlign=top;spacingLeft=4;spacingRight=4;overflow=hidden;rotatable=0;points=[[0,0.5],[1,0.5]];portConstraint=eastwest;whiteSpace=wrap;html=1;autosize=1;" parent="KGcUv-pFr_gMB9oFCGtX-54" vertex="1">
          <mxGeometry y="38" width="160" height="30" as="geometry" />
        </mxCell>
        <mxCell id="KGcUv-pFr_gMB9oFCGtX-56" value="" style="line;strokeWidth=1;fillColor=none;align=left;verticalAlign=middle;spacingTop=-1;spacingLeft=3;spacingRight=3;rotatable=0;labelPosition=right;points=[];portConstraint=eastwest;strokeColor=inherit;" parent="KGcUv-pFr_gMB9oFCGtX-54" vertex="1">
          <mxGeometry y="68" width="160" height="8" as="geometry" />
        </mxCell>
        <mxCell id="KGcUv-pFr_gMB9oFCGtX-57" value="-&amp;nbsp;" style="text;strokeColor=none;fillColor=none;align=left;verticalAlign=top;spacingLeft=4;spacingRight=4;overflow=hidden;rotatable=0;points=[[0,0.5],[1,0.5]];portConstraint=eastwest;whiteSpace=wrap;html=1;autosize=1;" parent="KGcUv-pFr_gMB9oFCGtX-54" vertex="1">
          <mxGeometry y="76" width="160" height="30" as="geometry" />
        </mxCell>
        <mxCell id="KGcUv-pFr_gMB9oFCGtX-95" style="edgeStyle=elbowEdgeStyle;rounded=0;orthogonalLoop=1;jettySize=auto;elbow=vertical;html=1;strokeColor=default;align=center;verticalAlign=middle;fontFamily=Helvetica;fontSize=12;fontColor=default;labelBackgroundColor=default;startSize=8;endArrow=classic;endSize=8;" parent="WIyWlLk6GJQsqaUBKTNV-1" source="KGcUv-pFr_gMB9oFCGtX-58" target="KGcUv-pFr_gMB9oFCGtX-83" edge="1">
          <mxGeometry relative="1" as="geometry" />
        </mxCell>
        <mxCell id="KGcUv-pFr_gMB9oFCGtX-58" value="Deck" style="swimlane;fontStyle=1;align=center;verticalAlign=top;childLayout=stackLayout;horizontal=1;startSize=38;horizontalStack=0;resizeParent=1;resizeParentMax=0;resizeLast=0;collapsible=1;marginBottom=0;whiteSpace=wrap;html=1;autosize=1;" parent="WIyWlLk6GJQsqaUBKTNV-1" vertex="1">
          <mxGeometry x="-400" y="640" width="200" height="256" as="geometry">
            <mxRectangle x="456" y="270" width="100" height="30" as="alternateBounds" />
          </mxGeometry>
        </mxCell>
        <mxCell id="KGcUv-pFr_gMB9oFCGtX-59" value="&lt;div&gt;+ numCards : int&lt;br&gt;&lt;/div&gt;+ listOfCards : List&amp;lt;Card&amp;gt;" style="text;strokeColor=none;fillColor=none;align=left;verticalAlign=top;spacingLeft=4;spacingRight=4;overflow=hidden;rotatable=0;points=[[0,0.5],[1,0.5]];portConstraint=eastwest;whiteSpace=wrap;html=1;autosize=1;" parent="KGcUv-pFr_gMB9oFCGtX-58" vertex="1">
          <mxGeometry y="38" width="200" height="40" as="geometry" />
        </mxCell>
        <mxCell id="KGcUv-pFr_gMB9oFCGtX-60" value="" style="line;strokeWidth=1;fillColor=none;align=left;verticalAlign=middle;spacingTop=-1;spacingLeft=3;spacingRight=3;rotatable=0;labelPosition=right;points=[];portConstraint=eastwest;strokeColor=inherit;" parent="KGcUv-pFr_gMB9oFCGtX-58" vertex="1">
          <mxGeometry y="78" width="200" height="8" as="geometry" />
        </mxCell>
        <mxCell id="KGcUv-pFr_gMB9oFCGtX-61" value="+ NumCards&lt;div&gt;+ ListOfCards&lt;/div&gt;&lt;div&gt;+ Deck()&lt;/div&gt;&lt;div&gt;+ Empty&lt;/div&gt;&lt;div&gt;+ Cut(int location)&lt;/div&gt;&lt;div&gt;+ Print()&lt;/div&gt;&lt;div&gt;+ Shuffle()&lt;/div&gt;&lt;div&gt;+ TakeTopCard() : Card&lt;/div&gt;&lt;div&gt;&lt;div&gt;+ RetrieveValue(int searchIndex)&lt;/div&gt;&lt;/div&gt;&lt;div&gt;&lt;span style=&quot;background-color: initial;&quot;&gt;+ RemoveCard(int remIndex)&lt;/span&gt;&lt;br&gt;&lt;/div&gt;&lt;div&gt;&lt;br&gt;&lt;/div&gt;" style="text;strokeColor=none;fillColor=none;align=left;verticalAlign=top;spacingLeft=4;spacingRight=4;overflow=hidden;rotatable=0;points=[[0,0.5],[1,0.5]];portConstraint=eastwest;whiteSpace=wrap;html=1;autosize=1;fontFamily=Helvetica;" parent="KGcUv-pFr_gMB9oFCGtX-58" vertex="1">
          <mxGeometry y="86" width="200" height="170" as="geometry" />
        </mxCell>
        <mxCell id="KGcUv-pFr_gMB9oFCGtX-94" style="edgeStyle=elbowEdgeStyle;rounded=0;orthogonalLoop=1;jettySize=auto;elbow=vertical;html=1;strokeColor=default;align=center;verticalAlign=middle;fontFamily=Helvetica;fontSize=12;fontColor=default;labelBackgroundColor=default;startSize=8;endArrow=classic;endSize=8;" parent="WIyWlLk6GJQsqaUBKTNV-1" source="KGcUv-pFr_gMB9oFCGtX-71" target="KGcUv-pFr_gMB9oFCGtX-83" edge="1">
          <mxGeometry relative="1" as="geometry" />
        </mxCell>
        <mxCell id="KGcUv-pFr_gMB9oFCGtX-71" value="Card" style="swimlane;fontStyle=1;align=center;verticalAlign=top;childLayout=stackLayout;horizontal=1;startSize=38;horizontalStack=0;resizeParent=1;resizeParentMax=0;resizeLast=0;collapsible=1;marginBottom=0;whiteSpace=wrap;html=1;autosize=1;fontFamily=Helvetica;" parent="WIyWlLk6GJQsqaUBKTNV-1" vertex="1">
          <mxGeometry x="-690" y="640" width="210" height="256" as="geometry">
            <mxRectangle x="456" y="270" width="100" height="30" as="alternateBounds" />
          </mxGeometry>
        </mxCell>
        <mxCell id="KGcUv-pFr_gMB9oFCGtX-72" value="&lt;div&gt;+ rank : Rank&lt;/div&gt;+ suit : Suit&lt;div&gt;+ pointValue : int&lt;br&gt;&lt;div&gt;+ faceUp : bool&lt;/div&gt;&lt;/div&gt;" style="text;strokeColor=none;fillColor=none;align=left;verticalAlign=top;spacingLeft=4;spacingRight=4;overflow=hidden;rotatable=0;points=[[0,0.5],[1,0.5]];portConstraint=eastwest;whiteSpace=wrap;html=1;autosize=1;" parent="KGcUv-pFr_gMB9oFCGtX-71" vertex="1">
          <mxGeometry y="38" width="210" height="70" as="geometry" />
        </mxCell>
        <mxCell id="KGcUv-pFr_gMB9oFCGtX-73" value="" style="line;strokeWidth=1;fillColor=none;align=left;verticalAlign=middle;spacingTop=-1;spacingLeft=3;spacingRight=3;rotatable=0;labelPosition=right;points=[];portConstraint=eastwest;strokeColor=inherit;" parent="KGcUv-pFr_gMB9oFCGtX-71" vertex="1">
          <mxGeometry y="108" width="210" height="8" as="geometry" />
        </mxCell>
        <mxCell id="KGcUv-pFr_gMB9oFCGtX-74" value="&lt;div&gt;+ Rank&lt;/div&gt;&lt;div&gt;+ Suit&lt;/div&gt;&lt;div&gt;+ PointValue&lt;/div&gt;&lt;div&gt;+ FaceUp&lt;/div&gt;&lt;div&gt;+ Card(Rank, Suit, int pointValue)&lt;br&gt;&lt;/div&gt;&lt;div&gt;+ FlipOver()&lt;/div&gt;&lt;div&gt;+ IsEqual()&lt;/div&gt;&lt;div&gt;+ toString()&lt;/div&gt;&lt;div&gt;+ EleventsPointValue()&lt;/div&gt;" style="text;strokeColor=none;fillColor=none;align=left;verticalAlign=top;spacingLeft=4;spacingRight=4;overflow=hidden;rotatable=0;points=[[0,0.5],[1,0.5]];portConstraint=eastwest;whiteSpace=wrap;html=1;autosize=1;" parent="KGcUv-pFr_gMB9oFCGtX-71" vertex="1">
          <mxGeometry y="116" width="210" height="140" as="geometry" />
        </mxCell>
        <mxCell id="KGcUv-pFr_gMB9oFCGtX-79" value="Classname" style="swimlane;fontStyle=1;align=center;verticalAlign=top;childLayout=stackLayout;horizontal=1;startSize=26;horizontalStack=0;resizeParent=1;resizeParentMax=0;resizeLast=0;collapsible=1;marginBottom=0;whiteSpace=wrap;html=1;autosize=1;" parent="WIyWlLk6GJQsqaUBKTNV-1" vertex="1">
          <mxGeometry x="30" y="491" width="160" height="94" as="geometry">
            <mxRectangle x="456" y="270" width="100" height="30" as="alternateBounds" />
          </mxGeometry>
        </mxCell>
        <mxCell id="KGcUv-pFr_gMB9oFCGtX-80" value="+&amp;nbsp;" style="text;strokeColor=none;fillColor=none;align=left;verticalAlign=top;spacingLeft=4;spacingRight=4;overflow=hidden;rotatable=0;points=[[0,0.5],[1,0.5]];portConstraint=eastwest;whiteSpace=wrap;html=1;autosize=1;" parent="KGcUv-pFr_gMB9oFCGtX-79" vertex="1">
          <mxGeometry y="26" width="160" height="30" as="geometry" />
        </mxCell>
        <mxCell id="KGcUv-pFr_gMB9oFCGtX-81" value="" style="line;strokeWidth=1;fillColor=none;align=left;verticalAlign=middle;spacingTop=-1;spacingLeft=3;spacingRight=3;rotatable=0;labelPosition=right;points=[];portConstraint=eastwest;strokeColor=inherit;" parent="KGcUv-pFr_gMB9oFCGtX-79" vertex="1">
          <mxGeometry y="56" width="160" height="8" as="geometry" />
        </mxCell>
        <mxCell id="KGcUv-pFr_gMB9oFCGtX-82" value="+" style="text;strokeColor=none;fillColor=none;align=left;verticalAlign=top;spacingLeft=4;spacingRight=4;overflow=hidden;rotatable=0;points=[[0,0.5],[1,0.5]];portConstraint=eastwest;whiteSpace=wrap;html=1;autosize=1;" parent="KGcUv-pFr_gMB9oFCGtX-79" vertex="1">
          <mxGeometry y="64" width="160" height="30" as="geometry" />
        </mxCell>
        <mxCell id="ddzjOJMnXyjiLpC934lL-8" style="edgeStyle=none;curved=1;rounded=0;orthogonalLoop=1;jettySize=auto;html=1;fontSize=12;startSize=8;endSize=8;" edge="1" parent="WIyWlLk6GJQsqaUBKTNV-1" source="KGcUv-pFr_gMB9oFCGtX-83" target="KGcUv-pFr_gMB9oFCGtX-89">
          <mxGeometry relative="1" as="geometry" />
        </mxCell>
        <mxCell id="KGcUv-pFr_gMB9oFCGtX-83" value="&lt;div&gt;&amp;lt;&amp;lt;abstract&amp;gt;&amp;gt;&lt;/div&gt;Board" style="swimlane;fontStyle=1;align=center;verticalAlign=top;childLayout=stackLayout;horizontal=1;startSize=48;horizontalStack=0;resizeParent=1;resizeParentMax=0;resizeLast=0;collapsible=1;marginBottom=0;whiteSpace=wrap;html=1;autosize=1;" parent="WIyWlLk6GJQsqaUBKTNV-1" vertex="1">
          <mxGeometry x="-580" y="1020" width="290" height="266" as="geometry">
            <mxRectangle x="456" y="270" width="100" height="30" as="alternateBounds" />
          </mxGeometry>
        </mxCell>
        <mxCell id="KGcUv-pFr_gMB9oFCGtX-84" value="+ deck : Deck&lt;div&gt;+ cardsOnBoard : Card[]&lt;/div&gt;" style="text;strokeColor=none;fillColor=none;align=left;verticalAlign=top;spacingLeft=4;spacingRight=4;overflow=hidden;rotatable=0;points=[[0,0.5],[1,0.5]];portConstraint=eastwest;whiteSpace=wrap;html=1;autosize=1;" parent="KGcUv-pFr_gMB9oFCGtX-83" vertex="1">
          <mxGeometry y="48" width="290" height="40" as="geometry" />
        </mxCell>
        <mxCell id="KGcUv-pFr_gMB9oFCGtX-85" value="" style="line;strokeWidth=1;fillColor=none;align=left;verticalAlign=middle;spacingTop=-1;spacingLeft=3;spacingRight=3;rotatable=0;labelPosition=right;points=[];portConstraint=eastwest;strokeColor=inherit;" parent="KGcUv-pFr_gMB9oFCGtX-83" vertex="1">
          <mxGeometry y="88" width="290" height="8" as="geometry" />
        </mxCell>
        <mxCell id="KGcUv-pFr_gMB9oFCGtX-86" value="+ Board()&lt;div&gt;+ NewGame()&lt;/div&gt;&lt;div&gt;+ CurrentCardsOnBoard()&lt;/div&gt;&lt;div&gt;+ DealCard()&lt;/div&gt;&lt;div&gt;+ RetrieveCardValue(int idx)&lt;/div&gt;&lt;div&gt;+ ReplaceCards(List&amp;lt;int&amp;gt; selectedCards()&lt;/div&gt;&lt;div&gt;+ LocateNonnullCards()&lt;/div&gt;&lt;div&gt;+ toString()&lt;/div&gt;&lt;div&gt;+ EmptyDeck()&lt;/div&gt;&lt;div&gt;+ IsLegal(List&amp;lt;int&amp;gt; selectedCards) : abstract bool&lt;/div&gt;&lt;div&gt;+ NextMove() : abstract bool&lt;/div&gt;" style="text;strokeColor=none;fillColor=none;align=left;verticalAlign=top;spacingLeft=4;spacingRight=4;overflow=hidden;rotatable=0;points=[[0,0.5],[1,0.5]];portConstraint=eastwest;whiteSpace=wrap;html=1;autosize=1;" parent="KGcUv-pFr_gMB9oFCGtX-83" vertex="1">
          <mxGeometry y="96" width="290" height="170" as="geometry" />
        </mxCell>
        <mxCell id="ddzjOJMnXyjiLpC934lL-9" style="edgeStyle=elbowEdgeStyle;rounded=0;orthogonalLoop=1;jettySize=auto;html=1;fontSize=12;startSize=8;endSize=8;elbow=vertical;" edge="1" parent="WIyWlLk6GJQsqaUBKTNV-1" source="KGcUv-pFr_gMB9oFCGtX-89" target="ddzjOJMnXyjiLpC934lL-0">
          <mxGeometry relative="1" as="geometry" />
        </mxCell>
        <mxCell id="KGcUv-pFr_gMB9oFCGtX-89" value="ElevensBoard" style="swimlane;fontStyle=1;align=center;verticalAlign=top;childLayout=stackLayout;horizontal=1;startSize=38;horizontalStack=0;resizeParent=1;resizeParentMax=0;resizeLast=0;collapsible=1;marginBottom=0;whiteSpace=wrap;html=1;autosize=1;" parent="WIyWlLk6GJQsqaUBKTNV-1" vertex="1">
          <mxGeometry x="-565" y="1370" width="260" height="176" as="geometry">
            <mxRectangle x="456" y="270" width="100" height="30" as="alternateBounds" />
          </mxGeometry>
        </mxCell>
        <mxCell id="KGcUv-pFr_gMB9oFCGtX-90" value="+ boardSize : int&lt;div&gt;&lt;br&gt;&lt;/div&gt;" style="text;strokeColor=none;fillColor=none;align=left;verticalAlign=top;spacingLeft=4;spacingRight=4;overflow=hidden;rotatable=0;points=[[0,0.5],[1,0.5]];portConstraint=eastwest;whiteSpace=wrap;html=1;autosize=1;" parent="KGcUv-pFr_gMB9oFCGtX-89" vertex="1">
          <mxGeometry y="38" width="260" height="40" as="geometry" />
        </mxCell>
        <mxCell id="KGcUv-pFr_gMB9oFCGtX-91" value="" style="line;strokeWidth=1;fillColor=none;align=left;verticalAlign=middle;spacingTop=-1;spacingLeft=3;spacingRight=3;rotatable=0;labelPosition=right;points=[];portConstraint=eastwest;strokeColor=inherit;" parent="KGcUv-pFr_gMB9oFCGtX-89" vertex="1">
          <mxGeometry y="78" width="260" height="8" as="geometry" />
        </mxCell>
        <mxCell id="KGcUv-pFr_gMB9oFCGtX-92" value="+ ElevensBoard()&lt;div&gt;+ IsLegal : override bool&lt;/div&gt;&lt;div&gt;+ NextMove : override bool&lt;/div&gt;&lt;div&gt;+ HasPairSum11(List&amp;lt;Card&amp;gt; selectedCards)&lt;/div&gt;&lt;div&gt;+ HasJQK(List&amp;lt;int&amp;gt; selectedCards)&lt;/div&gt;" style="text;strokeColor=none;fillColor=none;align=left;verticalAlign=top;spacingLeft=4;spacingRight=4;overflow=hidden;rotatable=0;points=[[0,0.5],[1,0.5]];portConstraint=eastwest;whiteSpace=wrap;html=1;autosize=1;" parent="KGcUv-pFr_gMB9oFCGtX-89" vertex="1">
          <mxGeometry y="86" width="260" height="90" as="geometry" />
        </mxCell>
        <mxCell id="ddzjOJMnXyjiLpC934lL-10" style="edgeStyle=elbowEdgeStyle;rounded=0;orthogonalLoop=1;jettySize=auto;html=1;fontSize=12;startSize=8;endSize=8;elbow=vertical;" edge="1" parent="WIyWlLk6GJQsqaUBKTNV-1" source="ddzjOJMnXyjiLpC934lL-0" target="ddzjOJMnXyjiLpC934lL-4">
          <mxGeometry relative="1" as="geometry" />
        </mxCell>
        <mxCell id="ddzjOJMnXyjiLpC934lL-0" value="ElevensForm" style="swimlane;fontStyle=1;align=center;verticalAlign=top;childLayout=stackLayout;horizontal=1;startSize=38;horizontalStack=0;resizeParent=1;resizeParentMax=0;resizeLast=0;collapsible=1;marginBottom=0;whiteSpace=wrap;html=1;autosize=1;" vertex="1" collapsed="1" parent="WIyWlLk6GJQsqaUBKTNV-1">
          <mxGeometry x="-485" y="1600" width="100" height="30" as="geometry">
            <mxRectangle x="-80" y="1210" width="160" height="106" as="alternateBounds" />
          </mxGeometry>
        </mxCell>
        <mxCell id="ddzjOJMnXyjiLpC934lL-1" value="+&amp;nbsp;" style="text;strokeColor=none;fillColor=none;align=left;verticalAlign=top;spacingLeft=4;spacingRight=4;overflow=hidden;rotatable=0;points=[[0,0.5],[1,0.5]];portConstraint=eastwest;whiteSpace=wrap;html=1;autosize=1;" vertex="1" parent="ddzjOJMnXyjiLpC934lL-0">
          <mxGeometry y="38" width="160" height="30" as="geometry" />
        </mxCell>
        <mxCell id="ddzjOJMnXyjiLpC934lL-2" value="" style="line;strokeWidth=1;fillColor=none;align=left;verticalAlign=middle;spacingTop=-1;spacingLeft=3;spacingRight=3;rotatable=0;labelPosition=right;points=[];portConstraint=eastwest;strokeColor=inherit;" vertex="1" parent="ddzjOJMnXyjiLpC934lL-0">
          <mxGeometry y="68" width="160" height="8" as="geometry" />
        </mxCell>
        <mxCell id="ddzjOJMnXyjiLpC934lL-3" value="+" style="text;strokeColor=none;fillColor=none;align=left;verticalAlign=top;spacingLeft=4;spacingRight=4;overflow=hidden;rotatable=0;points=[[0,0.5],[1,0.5]];portConstraint=eastwest;whiteSpace=wrap;html=1;autosize=1;" vertex="1" parent="ddzjOJMnXyjiLpC934lL-0">
          <mxGeometry y="76" width="160" height="30" as="geometry" />
        </mxCell>
        <mxCell id="ddzjOJMnXyjiLpC934lL-4" value="ElevensForm UI" style="swimlane;fontStyle=1;align=center;verticalAlign=top;childLayout=stackLayout;horizontal=1;startSize=38;horizontalStack=0;resizeParent=1;resizeParentMax=0;resizeLast=0;collapsible=1;marginBottom=0;whiteSpace=wrap;html=1;autosize=1;" vertex="1" collapsed="1" parent="WIyWlLk6GJQsqaUBKTNV-1">
          <mxGeometry x="-485" y="1670" width="100" height="30" as="geometry">
            <mxRectangle x="105" y="970" width="160" height="106" as="alternateBounds" />
          </mxGeometry>
        </mxCell>
        <mxCell id="ddzjOJMnXyjiLpC934lL-5" value="+&amp;nbsp;" style="text;strokeColor=none;fillColor=none;align=left;verticalAlign=top;spacingLeft=4;spacingRight=4;overflow=hidden;rotatable=0;points=[[0,0.5],[1,0.5]];portConstraint=eastwest;whiteSpace=wrap;html=1;autosize=1;" vertex="1" parent="ddzjOJMnXyjiLpC934lL-4">
          <mxGeometry y="38" width="160" height="30" as="geometry" />
        </mxCell>
        <mxCell id="ddzjOJMnXyjiLpC934lL-6" value="" style="line;strokeWidth=1;fillColor=none;align=left;verticalAlign=middle;spacingTop=-1;spacingLeft=3;spacingRight=3;rotatable=0;labelPosition=right;points=[];portConstraint=eastwest;strokeColor=inherit;" vertex="1" parent="ddzjOJMnXyjiLpC934lL-4">
          <mxGeometry y="68" width="160" height="8" as="geometry" />
        </mxCell>
        <mxCell id="ddzjOJMnXyjiLpC934lL-7" value="+" style="text;strokeColor=none;fillColor=none;align=left;verticalAlign=top;spacingLeft=4;spacingRight=4;overflow=hidden;rotatable=0;points=[[0,0.5],[1,0.5]];portConstraint=eastwest;whiteSpace=wrap;html=1;autosize=1;" vertex="1" parent="ddzjOJMnXyjiLpC934lL-4">
          <mxGeometry y="76" width="160" height="30" as="geometry" />
        </mxCell>
      </root>
    </mxGraphModel>
  </diagram>
  <diagram name="Copy of Page-1" id="Sj18CWGtmTyctkWbkZBB">
    <mxGraphModel dx="2353" dy="1180" grid="1" gridSize="10" guides="1" tooltips="1" connect="1" arrows="1" fold="1" page="1" pageScale="1" pageWidth="827" pageHeight="1169" math="0" shadow="0">
      <root>
        <mxCell id="Ot5ebw1Mijma1OUjENh1-0" />
        <mxCell id="Ot5ebw1Mijma1OUjENh1-1" parent="Ot5ebw1Mijma1OUjENh1-0" />
        <mxCell id="Ot5ebw1Mijma1OUjENh1-25" style="edgeStyle=elbowEdgeStyle;rounded=0;orthogonalLoop=1;jettySize=auto;html=1;fontSize=12;startSize=8;endSize=8;elbow=vertical;" parent="Ot5ebw1Mijma1OUjENh1-1" source="Ot5ebw1Mijma1OUjENh1-26" target="Ot5ebw1Mijma1OUjENh1-41" edge="1">
          <mxGeometry relative="1" as="geometry" />
        </mxCell>
        <mxCell id="Ot5ebw1Mijma1OUjENh1-26" value="Rank" style="swimlane;fontStyle=1;align=center;verticalAlign=top;childLayout=stackLayout;horizontal=1;startSize=38;horizontalStack=0;resizeParent=1;resizeParentMax=0;resizeLast=0;collapsible=1;marginBottom=0;whiteSpace=wrap;html=1;autosize=1;" parent="Ot5ebw1Mijma1OUjENh1-1" vertex="1" collapsed="1">
          <mxGeometry x="-720" y="523" width="100" height="30" as="geometry">
            <mxRectangle x="-500" y="600" width="160" height="106" as="alternateBounds" />
          </mxGeometry>
        </mxCell>
        <mxCell id="Ot5ebw1Mijma1OUjENh1-27" value="+&amp;nbsp;" style="text;strokeColor=none;fillColor=none;align=left;verticalAlign=top;spacingLeft=4;spacingRight=4;overflow=hidden;rotatable=0;points=[[0,0.5],[1,0.5]];portConstraint=eastwest;whiteSpace=wrap;html=1;autosize=1;" parent="Ot5ebw1Mijma1OUjENh1-26" vertex="1">
          <mxGeometry y="38" width="160" height="30" as="geometry" />
        </mxCell>
        <mxCell id="Ot5ebw1Mijma1OUjENh1-28" value="" style="line;strokeWidth=1;fillColor=none;align=left;verticalAlign=middle;spacingTop=-1;spacingLeft=3;spacingRight=3;rotatable=0;labelPosition=right;points=[];portConstraint=eastwest;strokeColor=inherit;" parent="Ot5ebw1Mijma1OUjENh1-26" vertex="1">
          <mxGeometry y="68" width="160" height="8" as="geometry" />
        </mxCell>
        <mxCell id="Ot5ebw1Mijma1OUjENh1-29" value="-&amp;nbsp;" style="text;strokeColor=none;fillColor=none;align=left;verticalAlign=top;spacingLeft=4;spacingRight=4;overflow=hidden;rotatable=0;points=[[0,0.5],[1,0.5]];portConstraint=eastwest;whiteSpace=wrap;html=1;autosize=1;" parent="Ot5ebw1Mijma1OUjENh1-26" vertex="1">
          <mxGeometry y="76" width="160" height="30" as="geometry" />
        </mxCell>
        <mxCell id="Ot5ebw1Mijma1OUjENh1-30" style="edgeStyle=elbowEdgeStyle;rounded=0;orthogonalLoop=1;jettySize=auto;elbow=vertical;html=1;strokeColor=default;align=center;verticalAlign=middle;fontFamily=Helvetica;fontSize=12;fontColor=default;labelBackgroundColor=default;startSize=8;endArrow=classic;endSize=8;" parent="Ot5ebw1Mijma1OUjENh1-1" source="Ot5ebw1Mijma1OUjENh1-31" target="Ot5ebw1Mijma1OUjENh1-41" edge="1">
          <mxGeometry relative="1" as="geometry" />
        </mxCell>
        <mxCell id="Ot5ebw1Mijma1OUjENh1-31" value="Suit" style="swimlane;fontStyle=1;align=center;verticalAlign=top;childLayout=stackLayout;horizontal=1;startSize=38;horizontalStack=0;resizeParent=1;resizeParentMax=0;resizeLast=0;collapsible=1;marginBottom=0;whiteSpace=wrap;html=1;autosize=1;" parent="Ot5ebw1Mijma1OUjENh1-1" vertex="1" collapsed="1">
          <mxGeometry x="-560" y="523" width="100" height="30" as="geometry">
            <mxRectangle x="-280" y="568" width="160" height="106" as="alternateBounds" />
          </mxGeometry>
        </mxCell>
        <mxCell id="Ot5ebw1Mijma1OUjENh1-32" value="+&amp;nbsp;" style="text;strokeColor=none;fillColor=none;align=left;verticalAlign=top;spacingLeft=4;spacingRight=4;overflow=hidden;rotatable=0;points=[[0,0.5],[1,0.5]];portConstraint=eastwest;whiteSpace=wrap;html=1;autosize=1;" parent="Ot5ebw1Mijma1OUjENh1-31" vertex="1">
          <mxGeometry y="38" width="160" height="30" as="geometry" />
        </mxCell>
        <mxCell id="Ot5ebw1Mijma1OUjENh1-33" value="" style="line;strokeWidth=1;fillColor=none;align=left;verticalAlign=middle;spacingTop=-1;spacingLeft=3;spacingRight=3;rotatable=0;labelPosition=right;points=[];portConstraint=eastwest;strokeColor=inherit;" parent="Ot5ebw1Mijma1OUjENh1-31" vertex="1">
          <mxGeometry y="68" width="160" height="8" as="geometry" />
        </mxCell>
        <mxCell id="Ot5ebw1Mijma1OUjENh1-34" value="-&amp;nbsp;" style="text;strokeColor=none;fillColor=none;align=left;verticalAlign=top;spacingLeft=4;spacingRight=4;overflow=hidden;rotatable=0;points=[[0,0.5],[1,0.5]];portConstraint=eastwest;whiteSpace=wrap;html=1;autosize=1;" parent="Ot5ebw1Mijma1OUjENh1-31" vertex="1">
          <mxGeometry y="76" width="160" height="30" as="geometry" />
        </mxCell>
        <mxCell id="Ot5ebw1Mijma1OUjENh1-35" style="edgeStyle=elbowEdgeStyle;rounded=0;orthogonalLoop=1;jettySize=auto;elbow=vertical;html=1;strokeColor=default;align=center;verticalAlign=middle;fontFamily=Helvetica;fontSize=12;fontColor=default;labelBackgroundColor=default;startSize=8;endArrow=classic;endSize=8;" parent="Ot5ebw1Mijma1OUjENh1-1" source="Ot5ebw1Mijma1OUjENh1-36" target="Ot5ebw1Mijma1OUjENh1-50" edge="1">
          <mxGeometry relative="1" as="geometry" />
        </mxCell>
        <mxCell id="Ot5ebw1Mijma1OUjENh1-36" value="Deck" style="swimlane;fontStyle=1;align=center;verticalAlign=top;childLayout=stackLayout;horizontal=1;startSize=38;horizontalStack=0;resizeParent=1;resizeParentMax=0;resizeLast=0;collapsible=1;marginBottom=0;whiteSpace=wrap;html=1;autosize=1;" parent="Ot5ebw1Mijma1OUjENh1-1" vertex="1">
          <mxGeometry x="-400" y="640" width="200" height="256" as="geometry">
            <mxRectangle x="456" y="270" width="100" height="30" as="alternateBounds" />
          </mxGeometry>
        </mxCell>
        <mxCell id="Ot5ebw1Mijma1OUjENh1-37" value="&lt;div&gt;+ numCards : int&lt;br&gt;&lt;/div&gt;+ listOfCards : List&amp;lt;Card&amp;gt;" style="text;strokeColor=none;fillColor=none;align=left;verticalAlign=top;spacingLeft=4;spacingRight=4;overflow=hidden;rotatable=0;points=[[0,0.5],[1,0.5]];portConstraint=eastwest;whiteSpace=wrap;html=1;autosize=1;" parent="Ot5ebw1Mijma1OUjENh1-36" vertex="1">
          <mxGeometry y="38" width="200" height="40" as="geometry" />
        </mxCell>
        <mxCell id="Ot5ebw1Mijma1OUjENh1-38" value="" style="line;strokeWidth=1;fillColor=none;align=left;verticalAlign=middle;spacingTop=-1;spacingLeft=3;spacingRight=3;rotatable=0;labelPosition=right;points=[];portConstraint=eastwest;strokeColor=inherit;" parent="Ot5ebw1Mijma1OUjENh1-36" vertex="1">
          <mxGeometry y="78" width="200" height="8" as="geometry" />
        </mxCell>
        <mxCell id="Ot5ebw1Mijma1OUjENh1-39" value="+ NumCards&lt;div&gt;+ ListOfCards&lt;/div&gt;&lt;div&gt;+ Deck()&lt;/div&gt;&lt;div&gt;+ Empty&lt;/div&gt;&lt;div&gt;+ Cut(int location)&lt;/div&gt;&lt;div&gt;+ Print()&lt;/div&gt;&lt;div&gt;+ Shuffle()&lt;/div&gt;&lt;div&gt;+ TakeTopCard() : Card&lt;/div&gt;&lt;div&gt;&lt;div&gt;+ RetrieveValue(int searchIndex)&lt;/div&gt;&lt;/div&gt;&lt;div&gt;&lt;span style=&quot;background-color: initial;&quot;&gt;+ RemoveCard(int remIndex)&lt;/span&gt;&lt;br&gt;&lt;/div&gt;&lt;div&gt;&lt;br&gt;&lt;/div&gt;" style="text;strokeColor=none;fillColor=none;align=left;verticalAlign=top;spacingLeft=4;spacingRight=4;overflow=hidden;rotatable=0;points=[[0,0.5],[1,0.5]];portConstraint=eastwest;whiteSpace=wrap;html=1;autosize=1;fontFamily=Helvetica;" parent="Ot5ebw1Mijma1OUjENh1-36" vertex="1">
          <mxGeometry y="86" width="200" height="170" as="geometry" />
        </mxCell>
        <mxCell id="Ot5ebw1Mijma1OUjENh1-40" style="edgeStyle=elbowEdgeStyle;rounded=0;orthogonalLoop=1;jettySize=auto;elbow=vertical;html=1;strokeColor=default;align=center;verticalAlign=middle;fontFamily=Helvetica;fontSize=12;fontColor=default;labelBackgroundColor=default;startSize=8;endArrow=classic;endSize=8;" parent="Ot5ebw1Mijma1OUjENh1-1" source="Ot5ebw1Mijma1OUjENh1-41" target="Ot5ebw1Mijma1OUjENh1-50" edge="1">
          <mxGeometry relative="1" as="geometry" />
        </mxCell>
        <mxCell id="Ot5ebw1Mijma1OUjENh1-41" value="Card" style="swimlane;fontStyle=1;align=center;verticalAlign=top;childLayout=stackLayout;horizontal=1;startSize=38;horizontalStack=0;resizeParent=1;resizeParentMax=0;resizeLast=0;collapsible=1;marginBottom=0;whiteSpace=wrap;html=1;autosize=1;fontFamily=Helvetica;" parent="Ot5ebw1Mijma1OUjENh1-1" vertex="1">
          <mxGeometry x="-690" y="640" width="210" height="256" as="geometry">
            <mxRectangle x="456" y="270" width="100" height="30" as="alternateBounds" />
          </mxGeometry>
        </mxCell>
        <mxCell id="Ot5ebw1Mijma1OUjENh1-42" value="&lt;div&gt;+ rank : Rank&lt;/div&gt;+ suit : Suit&lt;div&gt;+ pointValue : int&lt;br&gt;&lt;div&gt;+ faceUp : bool&lt;/div&gt;&lt;/div&gt;" style="text;strokeColor=none;fillColor=none;align=left;verticalAlign=top;spacingLeft=4;spacingRight=4;overflow=hidden;rotatable=0;points=[[0,0.5],[1,0.5]];portConstraint=eastwest;whiteSpace=wrap;html=1;autosize=1;" parent="Ot5ebw1Mijma1OUjENh1-41" vertex="1">
          <mxGeometry y="38" width="210" height="70" as="geometry" />
        </mxCell>
        <mxCell id="Ot5ebw1Mijma1OUjENh1-43" value="" style="line;strokeWidth=1;fillColor=none;align=left;verticalAlign=middle;spacingTop=-1;spacingLeft=3;spacingRight=3;rotatable=0;labelPosition=right;points=[];portConstraint=eastwest;strokeColor=inherit;" parent="Ot5ebw1Mijma1OUjENh1-41" vertex="1">
          <mxGeometry y="108" width="210" height="8" as="geometry" />
        </mxCell>
        <mxCell id="Ot5ebw1Mijma1OUjENh1-44" value="&lt;div&gt;+ Rank&lt;/div&gt;&lt;div&gt;+ Suit&lt;/div&gt;&lt;div&gt;+ PointValue&lt;/div&gt;&lt;div&gt;+ FaceUp&lt;/div&gt;&lt;div&gt;+ Card(Rank, Suit, int pointValue)&lt;br&gt;&lt;/div&gt;&lt;div&gt;+ FlipOver()&lt;/div&gt;&lt;div&gt;+ IsEqual()&lt;/div&gt;&lt;div&gt;+ toString()&lt;/div&gt;&lt;div&gt;+ EleventsPointValue()&lt;/div&gt;" style="text;strokeColor=none;fillColor=none;align=left;verticalAlign=top;spacingLeft=4;spacingRight=4;overflow=hidden;rotatable=0;points=[[0,0.5],[1,0.5]];portConstraint=eastwest;whiteSpace=wrap;html=1;autosize=1;" parent="Ot5ebw1Mijma1OUjENh1-41" vertex="1">
          <mxGeometry y="116" width="210" height="140" as="geometry" />
        </mxCell>
        <mxCell id="Ot5ebw1Mijma1OUjENh1-49" style="edgeStyle=none;curved=1;rounded=0;orthogonalLoop=1;jettySize=auto;html=1;fontSize=12;startSize=8;endSize=8;" parent="Ot5ebw1Mijma1OUjENh1-1" source="Ot5ebw1Mijma1OUjENh1-50" target="Ot5ebw1Mijma1OUjENh1-55" edge="1">
          <mxGeometry relative="1" as="geometry" />
        </mxCell>
        <mxCell id="Ot5ebw1Mijma1OUjENh1-50" value="&lt;div&gt;&amp;lt;&amp;lt;abstract&amp;gt;&amp;gt;&lt;/div&gt;Board" style="swimlane;fontStyle=1;align=center;verticalAlign=top;childLayout=stackLayout;horizontal=1;startSize=48;horizontalStack=0;resizeParent=1;resizeParentMax=0;resizeLast=0;collapsible=1;marginBottom=0;whiteSpace=wrap;html=1;autosize=1;" parent="Ot5ebw1Mijma1OUjENh1-1" vertex="1">
          <mxGeometry x="-580" y="1020" width="290" height="266" as="geometry">
            <mxRectangle x="456" y="270" width="100" height="30" as="alternateBounds" />
          </mxGeometry>
        </mxCell>
        <mxCell id="Ot5ebw1Mijma1OUjENh1-51" value="+ deck : Deck&lt;div&gt;+ cardsOnBoard : Card[]&lt;/div&gt;" style="text;strokeColor=none;fillColor=none;align=left;verticalAlign=top;spacingLeft=4;spacingRight=4;overflow=hidden;rotatable=0;points=[[0,0.5],[1,0.5]];portConstraint=eastwest;whiteSpace=wrap;html=1;autosize=1;" parent="Ot5ebw1Mijma1OUjENh1-50" vertex="1">
          <mxGeometry y="48" width="290" height="40" as="geometry" />
        </mxCell>
        <mxCell id="Ot5ebw1Mijma1OUjENh1-52" value="" style="line;strokeWidth=1;fillColor=none;align=left;verticalAlign=middle;spacingTop=-1;spacingLeft=3;spacingRight=3;rotatable=0;labelPosition=right;points=[];portConstraint=eastwest;strokeColor=inherit;" parent="Ot5ebw1Mijma1OUjENh1-50" vertex="1">
          <mxGeometry y="88" width="290" height="8" as="geometry" />
        </mxCell>
        <mxCell id="Ot5ebw1Mijma1OUjENh1-53" value="+ Board()&lt;div&gt;+ NewGame()&lt;/div&gt;&lt;div&gt;+ CurrentCardsOnBoard()&lt;/div&gt;&lt;div&gt;+ DealCard()&lt;/div&gt;&lt;div&gt;+ RetrieveCardValue(int idx)&lt;/div&gt;&lt;div&gt;+ ReplaceCards(List&amp;lt;int&amp;gt; selectedCards()&lt;/div&gt;&lt;div&gt;+ LocateNonnullCards()&lt;/div&gt;&lt;div&gt;+ toString()&lt;/div&gt;&lt;div&gt;+ EmptyDeck()&lt;/div&gt;&lt;div&gt;+ IsLegal(List&amp;lt;int&amp;gt; selectedCards) : abstract bool&lt;/div&gt;&lt;div&gt;+ NextMove() : abstract bool&lt;/div&gt;" style="text;strokeColor=none;fillColor=none;align=left;verticalAlign=top;spacingLeft=4;spacingRight=4;overflow=hidden;rotatable=0;points=[[0,0.5],[1,0.5]];portConstraint=eastwest;whiteSpace=wrap;html=1;autosize=1;" parent="Ot5ebw1Mijma1OUjENh1-50" vertex="1">
          <mxGeometry y="96" width="290" height="170" as="geometry" />
        </mxCell>
        <mxCell id="Ot5ebw1Mijma1OUjENh1-54" style="edgeStyle=elbowEdgeStyle;rounded=0;orthogonalLoop=1;jettySize=auto;html=1;fontSize=12;startSize=8;endSize=8;elbow=vertical;" parent="Ot5ebw1Mijma1OUjENh1-1" source="Ot5ebw1Mijma1OUjENh1-55" target="Ot5ebw1Mijma1OUjENh1-60" edge="1">
          <mxGeometry relative="1" as="geometry" />
        </mxCell>
        <mxCell id="Ot5ebw1Mijma1OUjENh1-55" value="ElevensBoard" style="swimlane;fontStyle=1;align=center;verticalAlign=top;childLayout=stackLayout;horizontal=1;startSize=38;horizontalStack=0;resizeParent=1;resizeParentMax=0;resizeLast=0;collapsible=1;marginBottom=0;whiteSpace=wrap;html=1;autosize=1;" parent="Ot5ebw1Mijma1OUjENh1-1" vertex="1">
          <mxGeometry x="-565" y="1370" width="260" height="176" as="geometry">
            <mxRectangle x="456" y="270" width="100" height="30" as="alternateBounds" />
          </mxGeometry>
        </mxCell>
        <mxCell id="Ot5ebw1Mijma1OUjENh1-56" value="+ boardSize : int&lt;div&gt;&lt;br&gt;&lt;/div&gt;" style="text;strokeColor=none;fillColor=none;align=left;verticalAlign=top;spacingLeft=4;spacingRight=4;overflow=hidden;rotatable=0;points=[[0,0.5],[1,0.5]];portConstraint=eastwest;whiteSpace=wrap;html=1;autosize=1;" parent="Ot5ebw1Mijma1OUjENh1-55" vertex="1">
          <mxGeometry y="38" width="260" height="40" as="geometry" />
        </mxCell>
        <mxCell id="Ot5ebw1Mijma1OUjENh1-57" value="" style="line;strokeWidth=1;fillColor=none;align=left;verticalAlign=middle;spacingTop=-1;spacingLeft=3;spacingRight=3;rotatable=0;labelPosition=right;points=[];portConstraint=eastwest;strokeColor=inherit;" parent="Ot5ebw1Mijma1OUjENh1-55" vertex="1">
          <mxGeometry y="78" width="260" height="8" as="geometry" />
        </mxCell>
        <mxCell id="Ot5ebw1Mijma1OUjENh1-58" value="+ ElevensBoard()&lt;div&gt;+ IsLegal : override bool&lt;/div&gt;&lt;div&gt;+ NextMove : override bool&lt;/div&gt;&lt;div&gt;+ HasPairSum11(List&amp;lt;Card&amp;gt; selectedCards)&lt;/div&gt;&lt;div&gt;+ HasJQK(List&amp;lt;int&amp;gt; selectedCards)&lt;/div&gt;" style="text;strokeColor=none;fillColor=none;align=left;verticalAlign=top;spacingLeft=4;spacingRight=4;overflow=hidden;rotatable=0;points=[[0,0.5],[1,0.5]];portConstraint=eastwest;whiteSpace=wrap;html=1;autosize=1;" parent="Ot5ebw1Mijma1OUjENh1-55" vertex="1">
          <mxGeometry y="86" width="260" height="90" as="geometry" />
        </mxCell>
        <mxCell id="Ot5ebw1Mijma1OUjENh1-59" style="edgeStyle=elbowEdgeStyle;rounded=0;orthogonalLoop=1;jettySize=auto;html=1;fontSize=12;startSize=8;endSize=8;elbow=vertical;" parent="Ot5ebw1Mijma1OUjENh1-1" source="Ot5ebw1Mijma1OUjENh1-60" target="Ot5ebw1Mijma1OUjENh1-64" edge="1">
          <mxGeometry relative="1" as="geometry" />
        </mxCell>
        <mxCell id="Ot5ebw1Mijma1OUjENh1-60" value="ElevensForm" style="swimlane;fontStyle=1;align=center;verticalAlign=top;childLayout=stackLayout;horizontal=1;startSize=38;horizontalStack=0;resizeParent=1;resizeParentMax=0;resizeLast=0;collapsible=1;marginBottom=0;whiteSpace=wrap;html=1;autosize=1;" parent="Ot5ebw1Mijma1OUjENh1-1" vertex="1" collapsed="1">
          <mxGeometry x="-490" y="1600" width="110" height="38" as="geometry">
            <mxRectangle x="-80" y="1210" width="160" height="106" as="alternateBounds" />
          </mxGeometry>
        </mxCell>
        <mxCell id="Ot5ebw1Mijma1OUjENh1-61" value="+&amp;nbsp;" style="text;strokeColor=none;fillColor=none;align=left;verticalAlign=top;spacingLeft=4;spacingRight=4;overflow=hidden;rotatable=0;points=[[0,0.5],[1,0.5]];portConstraint=eastwest;whiteSpace=wrap;html=1;autosize=1;" parent="Ot5ebw1Mijma1OUjENh1-60" vertex="1">
          <mxGeometry y="38" width="160" height="30" as="geometry" />
        </mxCell>
        <mxCell id="Ot5ebw1Mijma1OUjENh1-62" value="" style="line;strokeWidth=1;fillColor=none;align=left;verticalAlign=middle;spacingTop=-1;spacingLeft=3;spacingRight=3;rotatable=0;labelPosition=right;points=[];portConstraint=eastwest;strokeColor=inherit;" parent="Ot5ebw1Mijma1OUjENh1-60" vertex="1">
          <mxGeometry y="68" width="160" height="8" as="geometry" />
        </mxCell>
        <mxCell id="Ot5ebw1Mijma1OUjENh1-63" value="+" style="text;strokeColor=none;fillColor=none;align=left;verticalAlign=top;spacingLeft=4;spacingRight=4;overflow=hidden;rotatable=0;points=[[0,0.5],[1,0.5]];portConstraint=eastwest;whiteSpace=wrap;html=1;autosize=1;" parent="Ot5ebw1Mijma1OUjENh1-60" vertex="1">
          <mxGeometry y="76" width="160" height="30" as="geometry" />
        </mxCell>
        <mxCell id="Ot5ebw1Mijma1OUjENh1-64" value="ElevensForm UI" style="swimlane;fontStyle=1;align=center;verticalAlign=top;childLayout=stackLayout;horizontal=1;startSize=38;horizontalStack=0;resizeParent=1;resizeParentMax=0;resizeLast=0;collapsible=1;marginBottom=0;whiteSpace=wrap;html=1;autosize=1;" parent="Ot5ebw1Mijma1OUjENh1-1" vertex="1" collapsed="1">
          <mxGeometry x="-499" y="1680" width="130" height="38" as="geometry">
            <mxRectangle x="105" y="970" width="160" height="106" as="alternateBounds" />
          </mxGeometry>
        </mxCell>
        <mxCell id="Ot5ebw1Mijma1OUjENh1-65" value="+&amp;nbsp;" style="text;strokeColor=none;fillColor=none;align=left;verticalAlign=top;spacingLeft=4;spacingRight=4;overflow=hidden;rotatable=0;points=[[0,0.5],[1,0.5]];portConstraint=eastwest;whiteSpace=wrap;html=1;autosize=1;" parent="Ot5ebw1Mijma1OUjENh1-64" vertex="1">
          <mxGeometry y="38" width="160" height="30" as="geometry" />
        </mxCell>
        <mxCell id="Ot5ebw1Mijma1OUjENh1-66" value="" style="line;strokeWidth=1;fillColor=none;align=left;verticalAlign=middle;spacingTop=-1;spacingLeft=3;spacingRight=3;rotatable=0;labelPosition=right;points=[];portConstraint=eastwest;strokeColor=inherit;" parent="Ot5ebw1Mijma1OUjENh1-64" vertex="1">
          <mxGeometry y="68" width="160" height="8" as="geometry" />
        </mxCell>
        <mxCell id="Ot5ebw1Mijma1OUjENh1-67" value="+" style="text;strokeColor=none;fillColor=none;align=left;verticalAlign=top;spacingLeft=4;spacingRight=4;overflow=hidden;rotatable=0;points=[[0,0.5],[1,0.5]];portConstraint=eastwest;whiteSpace=wrap;html=1;autosize=1;" parent="Ot5ebw1Mijma1OUjENh1-64" vertex="1">
          <mxGeometry y="76" width="160" height="30" as="geometry" />
        </mxCell>
      </root>
    </mxGraphModel>
  </diagram>
</mxfile>
